<svg width="32" height="32" viewBox="0 0 32 32" fill="none" xmlns="http://www.w3.org/2000/svg">
  <defs>
    <linearGradient id="gradient" x1="0%" y1="0%" x2="100%" y2="100%">
      <stop offset="0%" style="stop-color:#FF6B6B" />
      <stop offset="100%" style="stop-color:#4ECDC4" />
    </linearGradient>
  </defs>
  <path fill-rule="evenodd" clip-rule="evenodd" d="M16 2C8.268 2 2 8.268 2 16C2 23.732 8.268 30 16 30C23.732 30 30 23.732 30 16C30 8.268 23.732 2 16 2ZM16 7C11.029 7 7 11.029 7 16C7 20.971 11.029 25 16 25C20.971 25 25 20.971 25 16C25 11.029 20.971 7 16 7Z" fill="url(#gradient)"/>
  <path d="M16 12C13.791 12 12 13.791 12 16C12 18.209 13.791 20 16 20C18.209 20 20 18.209 20 16C20 13.791 18.209 12 16 12Z" fill="url(#gradient)"/>
</svg> 